# xmcd
#
# Track frame offsets:
# 150
# 13616
# 30663
# 44811
# 57950
# 69324
# 85472
# 101340
# 114011
# 124360
# 139693
# 154913
# 168036
#
# Disc length: 2451 seconds
#
#
# Revision: 0
# Processed by: cddbd v1.5.2PL0 Copyright (c) Steve Scherf et al.
# Submitted via: FreeRIP 2.951 
#
DISCID=a609910d
DTITLE=San Marino - A força do amor
DYEAR=2006
DGENRE=Country
TTITLE0=Caixa postal
TTITLE1=Nunca mais vou te enganar
TTITLE2=Preciso te falar
TTITLE3=Coração vagabundo
TTITLE4=Fora de sério
TTITLE5=a dama e o vagabundo
TTITLE6=Nosso amor é elétrico
TTITLE7=Não vou deixar
TTITLE8=O e-mail dela
TTITLE9=Tá com dor de cotovelo
TTITLE10=Ex-Namorado
TTITLE11=Vou pedir perdão a ela
TTITLE12=A força do amor
EXTD=
EXTT0=
EXTT1=
EXTT2=
EXTT3=
EXTT4=
EXTT5=
EXTT6=
EXTT7=
EXTT8=
EXTT9=
EXTT10=
EXTT11=
EXTT12=
PLAYORDER=
